D:\school\WTK\thesis\model\3dpredictsim\Results\batch_windlass\Pog_s1_tmt_bCst_d05_k800_WL20_ig24_pas_GRF.mot
nRows=12
nColumns=19

name D:\school\WTK\thesis\model\3dpredictsim\Results\batch_windlass\Pog_s1_tmt_bCst_d05_k800_WL20_ig24_pas_GRF.mot
datacolumns 19
datarows 12
range 0.0000000000 0.1188315545
endheader
time 	ground_force_vx	ground_force_vy	ground_force_vz	ground_force_px	ground_force_py	ground_force_pz	1_ground_force_vx	1_ground_force_vy	1_ground_force_vz	1_ground_force_px	1_ground_force_py	1_ground_force_pz	ground_torque_x	ground_torque_y	ground_torque_z	1_ground_torque_x	1_ground_torque_y	1_ground_torque_z
        0.0000000000	      -96.6566194546	       79.1181324648	       32.0672590933	        0.1355750261	        0.0000000000	        0.0419217937	       89.1486488920	      418.3623664510	       -3.6349967731	       -0.3344667150	        0.0000000000	       -0.0328745576	        0.0000000000	        0.0000000000	        0.0000000000	        0.0000000000	        0.0000000000	        0.0000000000	
        0.0108028686	     -146.7232537150	      162.6355187415	       72.5628256221	        0.1458789577	        0.0000000000	        0.0407347444	       60.8502896899	      322.3947919299	      -12.1461174847	       -0.3280945552	        0.0000000000	       -0.0302675106	        0.0000000000	        0.0000000000	        0.0000000000	        0.0000000000	        0.0000000000	        0.0000000000	
        0.0216057372	      -72.1503922612	      369.6119085129	       28.0941269139	        0.1598922379	        0.0000000000	        0.0414213897	       29.3655743449	      218.7191885586	      -13.0078720581	       -0.3167466074	        0.0000000000	       -0.0245812777	        0.0000000000	        0.0000000000	        0.0000000000	        0.0000000000	        0.0000000000	        0.0000000000	
        0.0324086058	      -72.1023043425	      614.5247340306	       -4.4569517680	        0.1677939625	        0.0000000000	        0.0427279843	        9.9325879824	      155.6309535365	      -13.0185464360	       -0.3057515138	        0.0000000000	       -0.0181210975	        0.0000000000	        0.0000000000	        0.0000000000	        0.0000000000	        0.0000000000	        0.0000000000	
        0.0432114744	      -96.6334053724	      803.7117900719	      -13.3978325985	        0.1749419835	        0.0000000000	        0.0432262486	        2.5592027995	      122.7366343906	      -11.7498853152	       -0.3059827133	        0.0000000000	       -0.0182620171	        0.0000000000	        0.0000000000	        0.0000000000	        0.0000000000	        0.0000000000	        0.0000000000	
        0.0540143430	     -125.1708826882	      913.8530762250	      -14.7980628927	        0.1832257552	        0.0000000000	        0.0430042666	       -3.0881727088	       81.0567389271	       -9.9774786038	       -0.3057803572	        0.0000000000	       -0.0182553986	        0.0000000000	        0.0000000000	        0.0000000000	        0.0000000000	        0.0000000000	        0.0000000000	
        0.0648172115	     -128.8733985675	      943.7240910156	      -14.0334276908	        0.1905991890	        0.0000000000	        0.0423137527	       -9.9969324338	       31.9835646038	       -5.4808206583	       -0.3066307139	        0.0000000000	       -0.0182300462	        0.0000000000	        0.0000000000	        0.0000000000	        0.0000000000	        0.0000000000	        0.0000000000	
        0.0756200801	     -117.4554706772	      907.3214357277	      -13.2226165247	        0.1948486847	        0.0000000000	        0.0417770890	        0.1039424269	       -0.1058713927	        0.0057505394	        0.0000000000	        0.0000000000	        0.0000000000	        0.0000000000	        0.0000000000	        0.0000000000	        0.0000000000	        0.0000000000	        0.0000000000	
        0.0864229487	      -99.6656375683	      845.8966589673	      -13.6923172928	        0.1980295317	        0.0000000000	        0.0413746838	        0.0001293963	       -0.0001089656	       -0.0000031791	        0.0000000000	        0.0000000000	        0.0000000000	        0.0000000000	        0.0000000000	        0.0000000000	        0.0000000000	        0.0000000000	        0.0000000000	
        0.0972258173	      -84.2645546311	      786.5743527789	      -14.4104058573	        0.2010544258	        0.0000000000	        0.0410992120	        0.0000189190	       -0.0000137744	       -0.0000009262	        0.0000000000	        0.0000000000	        0.0000000000	        0.0000000000	        0.0000000000	        0.0000000000	        0.0000000000	        0.0000000000	        0.0000000000	
        0.1080286859	      -71.0646369132	      737.3428529553	      -14.8977710822	        0.2040304125	        0.0000000000	        0.0409372069	        0.0000791674	       -0.0000515176	       -0.0000048602	        0.0000000000	        0.0000000000	        0.0000000000	        0.0000000000	        0.0000000000	        0.0000000000	        0.0000000000	        0.0000000000	        0.0000000000	
        0.1188315545	      -59.3287247788	      697.4583216762	      -15.9335862017	        0.2071473203	        0.0000000000	        0.0408520676	        0.0018803670	       -0.0011202946	       -0.0001309714	        0.0000000000	        0.0000000000	        0.0000000000	        0.0000000000	        0.0000000000	        0.0000000000	        0.0000000000	        0.0000000000	        0.0000000000	
